<svg id="Capa_1" enable-background="new 0 0 512 512" height="512" viewBox="0 0 512 512" width="512" xmlns="http://www.w3.org/2000/svg"><g><g><path d="m213 12 41 132h-66z" fill="#fdf9f2"/><path d="m256 144 44-138 33 138z" fill="#fdf9f2"/><path d="m64 144 39-128 153 128z" fill="#f4efe3"/><path d="m249 144-204-88-20 88z" fill="#e7e2d5"/><path d="m256 144 133-144 36 144z" fill="#f4efe3"/><path d="m262 144 210-92 4 92z" fill="#e7e2d5"/></g><g><path d="m303 512 201-71 8-341-233 35-3 186z" fill="#edbc40"/><path d="m8 427 222 85 19-197-10-178-239-28z" fill="#edbc40"/><path d="m230 512h73l-24-377-40 2z" fill="#f6df47"/></g><g><path d="m305 153 16 332 166-62 8-296zm171 256-141 52-12-293 156-24z" fill="#d68034"/><path d="m463 298c0 54.124-13 98-56 98-30.928 0-56-43.876-56-98s19.072-98 50-98 62 43.876 62 98z" fill="#d68034"/><path d="m406 295s29-6 29 17c0 14-13 24-23 24-9.631 0-29-7-29-26 0-25 26-58 26-58l6 8z" fill="#edbc40"/></g><g fill="#e8a543"><path d="m42 176 149 21-6 124-143-35z"/><path d="m36 318 149 36-3 26-148-39z"/><path d="m36 357 142 37-3 19-142-35z"/></g><g fill="#d68034"><path d="m241 490 48 1-3-26-43 2z"/><path d="m244 451 42-1-2-16-40 3z"/></g></g></svg>