<svg id="Capa_1" enable-background="new 0 0 512 512" height="512" viewBox="0 0 512 512" width="512" xmlns="http://www.w3.org/2000/svg"><g><g><path d="m397 122-5-60-295 14-71 2-1 52h16z" fill="#9c6750"/><g fill="#844f3e"><path d="m152 116h16l-2-30h-13z"/><path d="m180 116 80-3-3-29-77 2z"/><path d="m365 111h22l-3-34-22 5 12 14z"/><path d="m37 86-2 35 20-5-10-13 12-16z"/></g></g><g><path d="m21 426h440l-11-92-426 12z" fill="#d68034"/><g fill="#b66624"><path d="m129 398 284-10-2-17-282 10z"/><path d="m116 382-54 2-3 17 56-2z"/></g></g><g><path d="m39 204 201 3 211-8h28l-5-82-433 13z" fill="#d68034"/><g fill="#b66624"><path d="m457 130-404 8v56l411-9zm-397 55 2-40 385-5 5 34z"/><path d="m166 164 85-17 81 15-81 11z"/></g></g><g><path d="m492 331-6-84-30 1-211-3-171 11-6 75z" fill="#c3aa37"/><g fill="#90802c"><path d="m104 268-4 37h17v-37z"/><path d="m131 268-2 37 14-1-3-36z"/><path d="m334 282c0 13-34.445 14-72 14s-64-6.268-64-14 30.445-14 68-14 68 8 68 14z"/><path d="m462 296 14-1-3-38-13 1z"/><path d="m447 295-20 1v-37h17z"/></g></g><g><path d="m0 512h512l-8-104-499 16z" fill="#9c6750"/><g fill="#844f3e"><path d="m58 496 383-5-5-60-376 12z"/><path d="m461 489h34l-6-63-32 3z"/></g></g><g><path d="m0 359 512-13-5-43-503 18z" fill="#f3d544"/><g fill="#d68034"><path d="m479 325c0 6.627-10.745 13-24 13-8 0-20-5.373-20-12s6.745-12 20-12 24 4.373 24 11z"/><path d="m416 332-363 12v-8l363-15z"/></g></g><g><path d="m8 257 66-1 382-8-5-49-412 5h-28z" fill="#f3d544"/><g fill="#d68034"><path d="m89 222v13s14.5-4.5 27 8l242-4s7-11 25-11l-2-12s-18 3-28-7l-236 3s-1 10-28 10z"/><path d="m434 206 5 35h-15l-1-34z"/><path d="m23 247h15l2-34h-12z"/></g></g><g><path d="m97 76 386-8-5-68-380 10z" fill="#f3d544"/><g fill="#d68034"><path d="m137 41 26 17 28-16-34-18z"/><path d="m362 37 37 15 27-18-26-19z"/><path d="m196 32 9 8-6 9 157-3-8-9 8-8z"/><path d="m113.158 75.665 15.842-.328v-66.153l-11.37.299z"/><path d="m443 68.829 20.448-.424-6.701-67.846-13.747.362z"/></g></g></g></svg>